<?xml version="1.0" encoding="utf-8"?>
<!-- Generator: Adobe Illustrator 16.0.0, SVG Export Plug-In . SVG Version: 6.00 Build 0)  -->
<!DOCTYPE svg PUBLIC "-//W3C//DTD SVG 1.1//EN" "http://www.w3.org/Graphics/SVG/1.1/DTD/svg11.dtd">
<svg version="1.1" id="Layer_1" xmlns="http://www.w3.org/2000/svg" xmlns:xlink="http://www.w3.org/1999/xlink" x="0px" y="0px"
	 width="356.092px" height="93.663px" viewBox="0 0 356.092 93.663" enable-background="new 0 0 356.092 93.663"
	 xml:space="preserve">
<g>
	<path fill-rule="evenodd" clip-rule="evenodd" fill="#B3282D" d="M347.939,20.189l0.744-0.027c0.857-0.021,1.55-0.338,1.529-1.032
		c-0.023-0.617-0.488-1.013-1.474-0.981c-0.412,0.011-0.7,0.063-0.86,0.11L347.939,20.189z M348.026,23.973l-1.566,0.053
		l-0.219-6.701c0.615-0.142,1.476-0.296,2.586-0.332c1.274-0.042,1.852,0.143,2.357,0.456c0.379,0.278,0.687,0.802,0.705,1.42
		c0.024,0.783-0.529,1.373-1.345,1.65l0.003,0.08c0.667,0.182,1.056,0.707,1.292,1.6c0.233,1.026,0.368,1.433,0.542,1.633
		l-1.681,0.054c-0.216-0.236-0.357-0.813-0.587-1.59c-0.154-0.729-0.573-1.048-1.435-1.018l-0.742,0.019L348.026,23.973z
		 M348.737,14.492h0.05c3.316-0.106,5.814,2.49,5.92,5.764c0.109,3.314-2.212,6.075-5.48,6.145
		c-3.369,0.105-5.901-2.451-6.011-5.769C343.104,17.361,345.469,14.6,348.737,14.492 M348.79,13.503
		c3.982-0.134,7.175,2.859,7.299,6.709c0.129,3.931-2.855,7.078-6.88,7.212c-3.971,0.132-7.247-2.813-7.378-6.744
		c-0.128-3.854,2.945-7.046,6.919-7.177H348.79z"/>
	<path fill-rule="evenodd" clip-rule="evenodd" fill="#B3282D" d="M106.789,42.005c-0.043-9.363,5.334-14.429,11.998-14.464
		c7.564-0.037,11.912,6.251,11.951,14.353c0.04,8.644-4.97,14.97-11.811,14.997C111.724,56.929,106.832,50.651,106.789,42.005
		 M143.522,41.834c-0.081-17.832-13.436-24.068-24.961-24.017c-12.605,0.061-24.636,7.499-24.557,24.428
		c0.073,15.849,10.74,24.26,24.424,24.198C135.355,66.364,143.591,55.701,143.522,41.834"/>
	<path fill-rule="evenodd" clip-rule="evenodd" fill="#B3282D" d="M251.246,31.962c-0.017-3.239,4.655-5.783,8.261-5.8
		c4.315-0.022,8.113,3.204,8.128,6.085c0.012,2.52-3.043,3.797-8.989,3.822C253.785,36.096,251.253,34.665,251.246,31.962
		 M281.708,37.94c-0.019-3.597-2.624-21.232-22.25-21.142c-11.705,0.054-22.833,7.128-22.752,25.499
		c0.074,15.306,10.014,23.361,23.162,23.3c13.505-0.062,19.947-8.199,19.938-11.078c-0.012-2.16-3.266-4.663-6.146-4.653
		c-4.68,0.023-5.911,6.33-13.655,6.369c-4.682,0.024-9.385-4.279-9.405-8.238c-0.01-3.063,2.139-4.696,6.283-4.715l14.588-0.067
		l4.14-0.018C279.932,43.174,281.726,42.086,281.708,37.94"/>
	<path fill-rule="evenodd" clip-rule="evenodd" fill="#B3282D" d="M84.562,19.78c-2.166,0.011-4.335-1.961-9.915-1.938
		c-5.403,0.029-6.837,2.56-6.813,7.06l0.16,33.673c0.021,4.683,1.834,7.196,5.254,7.179l3.602-0.017
		c3.78-0.017,5.57-2.361,5.552-6.867l-0.09-18.55c-0.021-4.138,2.306-7.391,6.983-8.856c4.854-1.46,5.924-3.265,5.908-7.591
		c-0.015-3.421-1.464-5.217-4.528-5.199C87.975,18.684,87.261,19.767,84.562,19.78"/>
	<path fill-rule="evenodd" clip-rule="evenodd" fill="#B3282D" d="M145.822,28.407c1.448,1.795,1.999,4.494,1.834,8.092
		l0.075,16.209c0.044,8.824,5.105,13.303,15.011,13.255c4.862-0.019,7.195-2.014,7.179-5.796c-0.028-5.4-5.971-5.371-7.425-8.427
		c-0.727-1.441-1.092-2.337-1.106-5.399l-0.047-10.448c-0.018-3.059-0.199-4.141,0.689-6.123c1.603-3.608,7.193-3.093,7.171-7.416
		c-0.021-4.321-5.246-4.296-6.695-6.453c-0.909-1.438-1.278-3.235-1.286-5.038c-0.011-2.52-0.57-6.657-6.874-6.627
		c-6.479,0.028-7.003,4.537-6.992,6.513c0.007,1.983,0.015,2.882-0.878,4.869c-0.712,1.805-5.385,3.628-5.373,6.691
		C141.125,25.365,144.37,26.611,145.822,28.407"/>
	<path fill-rule="evenodd" clip-rule="evenodd" fill="#B3282D" d="M219.82,17.618c-6.481,0.026-7.733,2.375-12.053,2.393
		c-2.343,0.012-5.231-1.232-8.832-1.22c-4.321,0.022-6.295,1.833-6.278,5.256l0.167,35.653c0.019,3.785,2.007,5.576,5.07,5.56
		l1.98-0.012c3.063-0.015,5.574-1.645,5.559-5.065l-0.088-18.913c-0.042-8.64,2.459-12.972,7.862-12.999
		c5.043-0.023,7.764,4.104,7.8,12.39l0.092,19.447c0.018,3.422,2.188,5.032,5.066,5.018l1.981-0.007
		c3.062-0.016,5.575-1.649,5.561-5.066l-0.139-28.092C233.522,21.512,228.104,17.577,219.82,17.618"/>
	<path fill-rule="evenodd" clip-rule="evenodd" fill="#B3282D" d="M327.323,13.321c-6.464-0.273-9.05,3.59-12.231,8.647
		c-3.476,5.599-11.096,9.755-16.195,0.131l-2.507-4.477c-2.264-3.928-3.915-5.966-10.603-6.25l-3.716-0.156
		c-5.16-0.222-6.577,3.279-3.949,7.206l12.771,18.591c2.895,5.632,4.049,10.431-0.307,17.11l-15.429,20.107
		c-7.122,8.172-1.55,10.215,4.635,10.623c7.357,0.48,9.418-4.182,12.014-8.161l3.028-4.763c5.146-7.424,13.353-7.061,18.263,1.022
		l2.909,5.318c2.236,4.471,4.182,8.209,10.912,8.492c3.13,0.135,12.417,0.951,7.939-7.374l-15.612-23.543
		c-2.646-5.537-3.718-10.408,1.173-17.578l12.924-15.162c3.38-3.641,5.611-9.479-0.851-9.751L327.323,13.321z"/>
	<path fill-rule="evenodd" clip-rule="evenodd" fill="#B3282D" d="M181.82,17.343l-3.239,0.015
		c-3.244,0.017-5.391,2.544-5.372,6.511l0.158,33.672c0.024,5.22,1.118,7.92,7.24,7.891c4.863-0.024,7.194-2.195,7.172-6.519
		l-0.158-33.673C187.599,20.016,185.604,17.324,181.82,17.343"/>
	<path fill-rule="evenodd" clip-rule="evenodd" fill="#B3282D" d="M187.353,6.333c-0.016-3.062-2.004-5.396-7.228-5.371
		c-3.783,0.02-7.019,1.294-6.996,5.797c0.015,3.06,1.825,5.39,7.048,5.369C184.136,12.109,187.375,10.836,187.353,6.333"/>
	<path fill-rule="evenodd" clip-rule="evenodd" fill="#B3282D" d="M17.674,33.995c-0.063-13.385,6.343-21.346,14.769-21.383
		c9.171-0.042,14.169,8.855,14.221,20.006c0.022,4.957-0.888,22.312-14.519,22.378C23.722,55.035,17.73,46.386,17.674,33.995
		 M34.998,0c-9.206,0.04-10.982,3.124-16.097,3.146c-3.582,0.019-6.404-1.501-11.005-1.485C2.524,1.69-0.025,4.258,0,9.118
		l0.353,75.89c0.026,5.885,1.834,8.684,8.484,8.654c7.16-0.031,8.431-2.854,8.383-12.572c-0.04-7.928-1.294-14.696,7.001-14.736
		c1.281-0.007,6.237,1.45,11.609,1.427C53.479,67.7,63.137,54.606,63.033,32.61C62.941,12.658,51.881-0.077,34.998,0"/>
</g>
</svg>
